TexturaLiberaSP-Bold.sfdir
StartChar: quotedbl
Encoding: 34 34 2
Width: 500
Flags: MW
LayerCount: 4
Fore
SplineSet
320 635 m 29
 390 565 l 5
 390 495 l 29
 285 390 l 1053
120 635 m 25
 190 565 l 1
 190 495 l 25
 85 390 l 1049
EndSplineSet
EndChar
StartChar: ampersand
Encoding: 38 38 6
Width: 500
Flags: MW
LayerCount: 4
Fore
SplineSet
200 350 m 29
 400 350 l 1053
450 100 m 1
 350 0 l 1
 300 50 l 1
 300 550 l 9
 200 600 l 1
 100 500 l 17
 100 400 l 5
 200 350 l 5
 100 250 l 29
 99 50 l 25
 200 0 l 25
 300 100 l 1041
EndSplineSet
EndChar
StartChar: comma
Encoding: 44 44 12
Width: 300
Flags: MW
LayerCount: 4
Fore
SplineSet
120 70 m 25
 190 0 l 1
 190 -70 l 25
 85 -175 l 1049
EndSplineSet
EndChar
StartChar: one
Encoding: 49 49 17
Width: 400
Flags: MW
LayerCount: 4
Fore
SplineSet
225 350 m 25
 175 400 l 25
 125 350 l 1049
200 375 m 9
 200 0 l 1029
EndSplineSet
Substitution2: "Subscript forms-1" one.inferior
Substitution2: "Superscript forms-1" one.superior
EndChar
StartChar: five
Encoding: 53 53 21
Width: 400
Flags: MW
LayerCount: 4
Fore
SplineSet
300 400 m 17
 300 400 253 350 225 350 c 0
 181 350 100 400 100 400 c 1
 100 125 l 1
 200 175 l 1
 300 75 l 1
 300 -100 l 17
 200 -200 l 1
 200 -200 110 -150 75 -150 c 1049
EndSplineSet
Substitution2: "Subscript forms-1" five.inferior
Substitution2: "Superscript forms-1" five.superior
EndChar
StartChar: seven
Encoding: 55 55 23
Width: 400
Flags: MW
LayerCount: 4
Fore
SplineSet
75 400 m 1
 75 400 137 350 225 350 c 3
 279 350 350 400 350 400 c 1
 350 400 200 276 200 0 c 3
 200 -32 200 -150 200 -150 c 1025
100 125 m 25
 100 125 147 150 175 150 c 24
 219 150 206 125 250 125 c 24
 278 125 325 150 326 150 c 1049
EndSplineSet
Substitution2: "Subscript forms-1" seven.inferior
Substitution2: "Superscript forms-1" seven.superior
EndChar
StartChar: bracketleft
Encoding: 91 91 59
Width: 300
Flags: MW
LayerCount: 4
Fore
SplineSet
250 700 m 25
 100 700 l 25
 100 -150 l 25
 250 -150 l 1033
EndSplineSet
EndChar
StartChar: d
Encoding: 100 100 68
Width: 400
Flags: MW
AnchorPoint: "blwmark" 200 0 basechar 0
AnchorPoint: "abvmark" 250 700 basechar 0
LayerCount: 4
Fore
SplineSet
300 300 m 1
 200 400 l 25
 100 300 l 1
 100 100 l 25
 200 0 l 25
 300 100 l 1
 300 450 l 10
 300 505 244 550 200 550 c 0
 156 550 100 556 100 600 c 27
 100 628 140 650 141 650 c 1049
EndSplineSet
EndChar
StartChar: h
Encoding: 104 104 72
Width: 400
Flags: MW
AnchorPoint: "blwmark" 200 0 basechar 0
AnchorPoint: "abvmark" 200 700 basechar 0
LayerCount: 4
Fore
SplineSet
65 625 m 25
 135 555 l 1049
100 590 m 9
 100 0 l 1049
300 0 m 25
 300 325 l 25
 225 400 l 1
 100 275 l 1049
EndSplineSet
Substitution2: "Stylistic alternates-1" h.alt
EndChar
StartChar: k
Encoding: 107 107 75
Width: 400
Flags: MW
AnchorPoint: "blwmark" 200 0 basechar 0
AnchorPoint: "abvmark" 200 700 basechar 0
LayerCount: 4
Fore
SplineSet
265 435 m 25
 335 365 l 1049
65 635 m 25
 135 565 l 1049
65 635 m 25
 135 565 l 1049
100 200 m 1
 300 350 l 9
 300 400 l 1049
200 275 m 1
 300 200 l 1
 300 0 l 1025
65 635 m 25
 135 565 l 1049
100 600 m 9
 100 0 l 1049
EndSplineSet
EndChar
StartChar: m
Encoding: 109 109 77
Width: 600
Flags: MW
AnchorPoint: "blwmark" 300 0 basechar 0
AnchorPoint: "abvmark" 300 500 basechar 0
LayerCount: 4
Fore
SplineSet
500 0 m 1
 500 325 l 25
 425 400 l 1
 300 275 l 1049
300 0 m 1
 300 325 l 25
 225 400 l 1
 100 275 l 1049
135 330 m 25
 65 400 l 1049
100 365 m 9
 100 0 l 1025
EndSplineSet
Substitution2: "Stylistic alternates-1" m.alt
EndChar
StartChar: n
Encoding: 110 110 78
Width: 400
Flags: MW
AnchorPoint: "blwmark" 200 0 basechar 0
AnchorPoint: "abvmark" 200 500 basechar 0
LayerCount: 4
Fore
SplineSet
300 0 m 1
 300 325 l 25
 225 400 l 1
 100 275 l 1049
135 330 m 25
 65 400 l 1049
100 365 m 9
 100 0 l 1025
EndSplineSet
Substitution2: "Stylistic alternates-1" n.alt
EndChar
StartChar: y
Encoding: 121 121 89
Width: 400
Flags: MW
AnchorPoint: "abvmark" 200 500 basechar 0
LayerCount: 4
Fore
SplineSet
135 330 m 25
 65 400 l 1049
335 330 m 25
 265 400 l 1049
75 -150 m 9
 119 -150 181 -200 225 -200 c 24
 260 -200 300 -150 300 -150 c 1
 300 365 l 1025
300 100 m 9
 200 0 l 25
 100 100 l 1
 100 365 l 1049
EndSplineSet
EndChar
StartChar: z
Encoding: 122 122 90
Width: 350
Flags: MW
AnchorPoint: "abvmark" 150 500 basechar 0
LayerCount: 4
Fore
SplineSet
50 400 m 17
 50 400 81 350 125 350 c 0
 153 350 200 400 200 400 c 1
 250 350 l 1
 100 200 l 1
 250 100 l 1
 250 -150 l 1
 250 -150 203 -200 175 -200 c 0
 143 -200 56 -150 25 -150 c 1041
EndSplineSet
EndChar
StartChar: cent
Encoding: 162 162 202
Width: 450
Flags: MW
LayerCount: 4
Fore
SplineSet
250 600 m 25
 250 -150 l 1049
400 300 m 9
 250 400 l 25
 100 250 l 25
 100 100 l 25
 250 0 l 25
 400 100 l 1045
EndSplineSet
EndChar
StartChar: dieresis
Encoding: 168 168 101
Width: 400
Flags: MW
LayerCount: 4
Fore
SplineSet
265 610 m 29
 335 540 l 1053
65 610 m 25
 135 540 l 1049
EndSplineSet
EndChar
StartChar: ordfeminine
Encoding: 170 170 210
Width: 400
Flags: MW
LayerCount: 4
Fore
SplineSet
50 200 m 25
 350 200 l 1049
125 550 m 17
 100 625 l 1
 175 700 l 1
 300 675 l 1
 300 300 l 1025
300 425 m 25
 175 300 l 1
 100 375 l 1
 100 475 l 1
 175 550 l 1
 175 550 193.963867188 525 250 525 c 3
 269.00390625 525 300 525 300 525 c 1033
EndSplineSet
EndChar
StartChar: logicalnot
Encoding: 172 172 225
Width: 600
Flags: MW
LayerCount: 4
Fore
SplineSet
100 400 m 25
 500 400 l 25
 500 200 l 1053
EndSplineSet
EndChar
StartChar: germandbls
Encoding: 223 223 131
Width: 500
Flags: MW
AnchorPoint: "abvmark" 300 750 basechar 0
LayerCount: 4
Fore
SplineSet
150 400 m 1
 150 400 224 350 268 350 c 3
 342 350 350 400 350 400 c 1
 400 350 l 1
 250 200 l 1
 400 100 l 1
 400 -100 l 1
 400 -100 353 -150 325 -150 c 1
 259 -63 125 0 125 0 c 1025
125 -200 m 1
 125 550 l 1
 225 650 l 17
 225 650 265 600 300 600 c 24
 335 600 375 650 376 650 c 1033
EndSplineSet
EndChar
StartChar: dotlessi
Encoding: 305 305 97
Width: 200
Flags: MW
AnchorPoint: "blwmark" 100 0 basechar 0
AnchorPoint: "abvmark" 100 500 basechar 0
LayerCount: 4
Fore
SplineSet
135 330 m 25
 65 400 l 25
 -5 330 l 1049
100 365 m 9
 100 0 l 1025
EndSplineSet
EndChar
StartChar: lslash
Encoding: 322 322 291
Width: 200
Flags: MW
LayerCount: 4
Fore
SplineSet
175 400 m 25
 25 250 l 1049
65 625 m 25
 135 555 l 1049
100 590 m 9
 100 0 l 1049
EndSplineSet
EndChar
StartChar: eng
Encoding: 331 331 600
Width: 400
Flags: MW
AnchorPoint: "abvmark" 200 500 basechar 0
LayerCount: 4
Fore
SplineSet
100 275 m 25
 225 400 l 1
 300 325 l 1
 300 -150 l 1
 300 -150 253 -200 225 -200 c 0
 193 -200 106 -150 75 -150 c 1041
135 330 m 25
 65 400 l 1049
100 365 m 9
 100 0 l 1025
EndSplineSet
EndChar
StartChar: longs
Encoding: 383 383 95
Width: 300
Flags: MW
AnchorPoint: "abvmark" 175 700 basechar 0
LayerCount: 4
Fore
SplineSet
125 -150 m 1
 125 550 l 1
 225 650 l 17
 225 650 256 600 300 600 c 24
 328 600 375 650 376 650 c 1033
EndSplineSet
EndChar
StartChar: ascript
Encoding: 593 593 348
Width: 400
Flags: MW
AnchorPoint: "blwmark" 200 0 basechar 0
AnchorPoint: "abvmark" 225 500 basechar 0
LayerCount: 4
Fore
SplineSet
300 0 m 1
 300 400 l 1
 300 400 278 360 250 360 c 0
 222 360 200 400 200 400 c 9
 100 300 l 1
 100 75 l 17
 175 0 l 1
 300 125 l 1049
EndSplineSet
EndChar
StartChar: Rsmallcap
Encoding: 640 640 854
Width: 450
Flags: MW
AnchorPoint: "blwmark" 225 0 basechar 0
AnchorPoint: "abvmark" 200 500 basechar 0
LayerCount: 4
Fore
SplineSet
65 400 m 25
 135 330 l 1049
100 365 m 9
 100 0 l 1025
375 0 m 1
 375 0 331 82 300 125 c 24
 280 154 225 175 225 175 c 1025
200 150 m 1
 350 300 l 1
 200 400 l 1
 100 300 l 1049
EndSplineSet
EndChar
StartChar: dotaccent
Encoding: 729 729 269
Width: 400
Flags: MW
LayerCount: 4
Fore
SplineSet
165 610 m 29
 235 540 l 1053
EndSplineSet
EndChar
StartChar: quotereversed
Encoding: 8219 8219 928
Width: 300
Flags: MW
LayerCount: 4
Layer: 3
SplineSet
180 620 m 29
 110 550 l 5
 110 480 l 29
 215 375 l 1053
EndSplineSet
EndChar
StartChar: refmark
Encoding: 8251 8251 953
Width: 600
Flags: MW
LayerCount: 4
Fore
SplineSet
500 500 m 25
 100 100 l 1049
100 500 m 25
 500 100 l 1049
465 360 m 25
 535 290 l 1049
240 135 m 25
 310 65 l 1049
290 535 m 25
 360 465 l 1049
65 310 m 29
 135 240 l 1053
EndSplineSet
EndChar
StartChar: bracketwhiteleft
Encoding: 10214 10214 918
Width: 400
Flags: MW
LayerCount: 4
Fore
SplineSet
350 700 m 25
 100 700 l 25
 100 -150 l 25
 350 -150 l 1033
EndSplineSet
Layer: 2
SplineSet
225 650 m 29
 225 -100 l 1053
EndSplineSet
EndChar
StartChar: ruslst
Encoding: 11789 11789 903
Width: 300
Flags: MW
LayerCount: 4
Fore
SplineSet
50 450 m 25
 250 700 l 1049
EndSplineSet
EndChar
StartChar: rlslst
Encoding: 11804 11804 904
Width: 300
Flags: MW
LayerCount: 4
Fore
SplineSet
50 100 m 25
 250 -150 l 1049
EndSplineSet
EndChar
StartChar: kslash
Encoding: 42819 42819 863
Width: 400
Flags: MW
AnchorPoint: "abvmark" 200 700 basechar 0
AnchorPoint: "blwmark" 200 0 basechar 0
LayerCount: 4
Fore
SplineSet
375 250 m 25
 225 100 l 1049
265 425 m 25
 335 355 l 1049
65 625 m 25
 135 555 l 1049
65 625 m 25
 135 555 l 1049
100 200 m 1
 300 350 l 9
 300 390 l 1049
200 275 m 1
 300 200 l 1
 300 0 l 1025
65 625 m 25
 135 555 l 1049
100 590 m 9
 100 0 l 1049
EndSplineSet
EndChar
StartChar: lbar
Encoding: 42825 42825 865
Width: 200
Flags: MW
AnchorPoint: "abvmark" 100 700 basechar 0
AnchorPoint: "blwmark" 100 0 basechar 0
LayerCount: 4
Fore
SplineSet
65 625 m 25
 135 555 l 1049
100 590 m 9
 100 0 l 1049
175 475 m 25
 25 475 l 1049
EndSplineSet
EndChar
StartChar: oeloop
Encoding: 42829 42829 867
Width: 550
Flags: MW
AnchorPoint: "blwmark" 300 0 basechar 0
AnchorPoint: "abvmark" 300 500 basechar 0
LayerCount: 4
Fore
SplineSet
300 100 m 1
 300 300 l 25
 400 400 l 25
 500 300 l 1
 500 300 l 5
 300 100 l 1
200 400 m 25
 100 300 l 25
 100 100 l 25
 200 0 l 25
 300 100 l 25
 300 300 l 25
 200 400 l 25
EndSplineSet
EndChar
StartChar: rrotunda
Encoding: 42843 42843 96
Width: 300
Flags: MW
AnchorPoint: "blwmark" 150 0 basechar 0
AnchorPoint: "abvmark" 150 500 basechar 0
LayerCount: 4
Fore
SplineSet
225 0 m 1
 100 200 l 25
 200 300 l 1
 100 400 l 1
 50 350 l 1049
EndSplineSet
EndChar
StartChar: is
Encoding: 42861 42861 957
Width: 450
Flags: MW
LayerCount: 4
Fore
SplineSet
-100 -150 m 9
 -56 -150 6 -200 50 -200 c 24
 85 -200 125 -150 125 -150 c 1
 125 550 l 1
 225 650 l 25
 325 550 l 25
 325 400 l 25
 0 50 l 1049
EndSplineSet
EndChar
StartChar: rum
Encoding: 42869 42869 704
Width: 450
Flags: MW
LayerCount: 4
Fore
SplineSet
250 525 m 1
 300 500 l 1
 300 500 300 406 300 250 c 3
 300 -37.2507615308 150 -150 150 -150 c 1025
400 400 m 17
 400 400 381 350 325 350 c 3
 231 350 200 400 200 400 c 9
 100 300 l 1025
65 400 m 25
 135 330 l 1049
100 365 m 9
 100 0 l 1025
EndSplineSet
EndChar
StartChar: Rumsmallcap
Encoding: 42870 42870 858
Width: 650
Flags: MW
LayerCount: 4
Fore
SplineSet
450 225 m 1
 500 200 l 1
 500 200 500 139 500 100 c 27
 500 3 350 -150 350 -150 c 1025
600 50 m 17
 600 50 581 0 525 0 c 3
 431 0 400 50 400 50 c 9
 350 0 l 1
 350 0 331 82 300 125 c 24
 280 154 225 175 225 175 c 1025
65 400 m 25
 135 330 l 1049
100 365 m 9
 100 0 l 1025
200 150 m 1
 350 300 l 1
 200 400 l 1
 100 300 l 1049
EndSplineSet
EndChar
StartChar: um
Encoding: 42872 42872 958
Width: 400
Flags: MW
LayerCount: 4
Fore
SplineSet
100 -150 m 25
 100 -150 100 -58 100 0 c 3
 100 141 350 400 350 400 c 1041
325 350 m 1
 281 350 200 400 200 400 c 9
 100 300 l 1
 100 240 l 1
 300 160 l 1
 300 100 l 1
 200 0 l 17
 200 0 104 50 75 50 c 1049
EndSplineSet
EndChar
StartChar: thornbar_longs
Encoding: 59189 59189 885
Width: 400
Flags: MW
LayerCount: 4
Fore
SplineSet
200 475 m 25
 25 475 l 1049
125 -150 m 1
 125 550 l 1
 225 650 l 17
 225 650 256 600 300 600 c 24
 328 600 375 650 376 650 c 1033
50 0 m 1
 50 0 96 50 125 50 c 0
 154 50 200 0 200 0 c 9
 300 100 l 1
 300 300 l 25
 200 400 l 1
 100 300 l 1049
EndSplineSet
LCarets2: 1 200 
Ligature2: "Historic ligatures-1" thornbar longs
EndChar
StartChar: q_rrotunda
Encoding: 59571 59571 965
Width: 600
Flags: MW
LayerCount: 4
Fore
SplineSet
300 100 m 9
 200 0 l 25
 100 100 l 25
 100 300 l 25
 200 400 l 1
 200 400 222 360 250 360 c 24
 278 360 300 400 300 400 c 9
 300 -150 l 1049
525 0 m 1
 400 200 l 25
 500 300 l 1
 400 400 l 1
 350 350 l 1049
EndSplineSet
LCarets2: 1 350 
Ligature2: "Ligatures-1" q rrotunda
EndChar
StartChar: g_r
Encoding: 60112 60112 502
Width: 500
Flags: MW
LayerCount: 4
Fore
SplineSet
450 350 m 25
 400 400 l 25
 300 300 l 1049
75 -150 m 9
 106 -150 193 -200 225 -200 c 24
 253 -200 300 -150 300 -150 c 9
 300 400 l 1
 300 400 278 360 250 360 c 24
 222 360 200 400 200 400 c 1
 100 300 l 25
 100 100 l 25
 200 0 l 25
 300 100 l 1041
EndSplineSet
LCarets2: 1 300 
Ligature2: "Historic ligatures-1" g r
EndChar
StartChar: longs_h
Encoding: 60321 60321 707
Width: 650
Flags: MW
LayerCount: 4
Fore
SplineSet
550 0 m 25
 550 325 l 25
 475 400 l 1
 350 275 l 1049
125 -150 m 1
 125 550 l 1
 225 650 l 1
 225 650 253 600 350 600 c 9
 350 0 l 1025
EndSplineSet
LCarets2: 1 300 
Ligature2: "Ligatures-1" longs h
EndChar
StartChar: longs_l
Encoding: 60323 60323 330
Width: 450
GlyphClass: 3
Flags: MW
LayerCount: 4
Fore
SplineSet
125 -150 m 1
 125 550 l 1
 225 650 l 1
 225 650 231 625 315 625 c 9
 385 555 l 1025
350 590 m 9
 350 0 l 1049
EndSplineSet
LCarets2: 1 300 
Ligature2: "Ligatures-1" longs l
EndChar
StartChar: longs_p
Encoding: 60325 60325 709
Width: 650
Flags: MW
LayerCount: 4
Fore
SplineSet
250 0 m 1
 250 0 296 50 325 50 c 11
 378 50 450 0 450 0 c 9
 550 100 l 1
 550 300 l 25
 450 400 l 1
 350 300 l 1049
350 375 m 1
 350 -150 l 1025
125 -150 m 1
 125 550 l 1
 225 650 l 17
 225 650 270 600 400 600 c 3
 435 600 476 650 476 650 c 9
 300 425 l 9
 375 350 l 1025
EndSplineSet
LCarets2: 1 300 
Ligature2: "Ligatures-1" longs p
EndChar
StartChar: longs_longs
Encoding: 60326 60326 327
Width: 500
GlyphClass: 3
Flags: MW
LayerCount: 4
Fore
SplineSet
325 -150 m 1
 325 550 l 1
 425 650 l 17
 425 650 456 600 500 600 c 24
 528 600 575 650 576 650 c 1033
125 -150 m 1
 125 550 l 1
 225 650 l 1
 225 650 281 550 325 550 c 1025
EndSplineSet
LCarets2: 1 300 
Ligature2: "Ligatures-1" longs longs
EndChar
StartChar: longs_longs_l
Encoding: 60328 60328 332
Width: 650
GlyphClass: 3
Flags: MW
LayerCount: 4
Fore
SplineSet
325 -150 m 1
 325 550 l 1
 425 650 l 17
 425 650 431 625 515 625 c 1
 585 555 l 1025
125 -150 m 1
 125 550 l 1
 225 650 l 1
 225 650 281 550 325 550 c 1025
550 590 m 9
 550 0 l 1049
EndSplineSet
LCarets2: 2 300 500 
Ligature2: "Ligatures-1" longs longs l
EndChar
StartChar: longs_t_r
Encoding: 60330 60330 713
Width: 700
Flags: MW
LayerCount: 4
Fore
SplineSet
650 350 m 25
 600 400 l 25
 500 300 l 1049
500 365 m 9
 500 0 l 1025
125 -150 m 1
 125 550 l 1
 225 650 l 1
 225 650 281 550 325 550 c 1
 325 50 l 1
 375 0 l 1
 475 100 l 1025
250 400 m 1
 465 400 l 25
 535 330 l 1025
EndSplineSet
LCarets2: 2 300 500 
Ligature2: "Ligatures-1" longs t r
EndChar
StartChar: f_r
Encoding: 61130 61130 352
Width: 550
GlyphClass: 3
Flags: MW
LayerCount: 4
Fore
SplineSet
125 -150 m 1
 125 550 l 1
 225 650 l 17
 225 650 256 600 300 600 c 24
 328 600 375 650 376 650 c 1025
50 400 m 1
 315 400 l 25
 385 330 l 1025
500 350 m 25
 450 400 l 25
 350 300 l 1049
350 365 m 9
 350 0 l 1025
EndSplineSet
LCarets2: 1 300 
Ligature2: "Ligatures-1" f r
EndChar
StartChar: f_y
Encoding: 61133 61133 353
Width: 650
GlyphClass: 3
Flags: MW
LayerCount: 4
Fore
SplineSet
585 330 m 25
 515 400 l 1049
325 -150 m 9
 369 -150 431 -200 475 -200 c 24
 510 -200 550 -150 550 -150 c 1
 550 365 l 1025
550 100 m 9
 450 0 l 25
 350 100 l 1
 350 365 l 1049
125 -150 m 1
 125 550 l 1
 225 650 l 17
 225 650 256 600 300 600 c 24
 328 600 375 650 376 650 c 1033
50 400 m 1
 315 400 l 25
 385 330 l 1025
EndSplineSet
LCarets2: 1 300 
Ligature2: "Ligatures-1" f y
EndChar
StartChar: f_f_y
Encoding: 61135 61135 355
Width: 850
GlyphClass: 3
Flags: MW
LayerCount: 4
Fore
SplineSet
785 330 m 25
 715 400 l 1049
525 -150 m 9
 569 -150 631 -200 675 -200 c 24
 710 -200 750 -150 750 -150 c 1
 750 365 l 1025
750 100 m 9
 650 0 l 25
 550 100 l 1
 550 365 l 1049
325 -150 m 1
 325 550 l 1
 425 650 l 17
 425 650 456 600 500 600 c 24
 528 600 575 650 576 650 c 1025
125 -150 m 1
 125 550 l 1
 225 650 l 1
 225 650 281 550 325 550 c 1025
50 400 m 1
 515 400 l 25
 585 330 l 1025
EndSplineSet
LCarets2: 2 300 500 
Ligature2: "Ligatures-1" f f y
EndChar
StartChar: t_y
Encoding: 61147 61147 731
Width: 650
Flags: MW
LayerCount: 4
Fore
SplineSet
585 330 m 25
 515 400 l 1049
325 -150 m 9
 369 -150 431 -200 475 -200 c 24
 510 -200 550 -150 550 -150 c 1
 550 365 l 1025
550 100 m 9
 450 0 l 25
 350 100 l 1
 350 365 l 1049
125 550 m 1
 125 50 l 1
 175 0 l 1
 275 100 l 1025
50 400 m 1
 315 400 l 1
 385 330 l 1025
EndSplineSet
LCarets2: 1 300 
Ligature2: "Ligatures-1" t y
EndChar
StartChar: t_z
Encoding: 61148 61148 732
Width: 550
Flags: MW
LayerCount: 4
Fore
SplineSet
50 400 m 1
 50 400 76 350 250 350 c 0
 356 350 400 400 400 400 c 1
 450 350 l 1
 300 200 l 1
 450 100 l 1
 450 -150 l 1
 450 -150 403 -200 375 -200 c 0
 343 -200 269 -150 225 -150 c 1041
125 550 m 1
 125 50 l 1
 175 0 l 1
 275 100 l 1025
EndSplineSet
LCarets2: 1 300 
Ligature2: "Ligatures-1" t z
EndChar
StartChar: g_o
Encoding: 61150 61150 500
Width: 600
Flags: MW
LayerCount: 4
Fore
SplineSet
400 400 m 25
 300 300 l 25
 300 100 l 25
 400 0 l 25
 500 100 l 25
 500 300 l 25
 400 400 l 25
75 -150 m 9
 106 -150 193 -200 225 -200 c 24
 253 -200 300 -150 300 -150 c 9
 300 400 l 1
 300 400 278 360 250 360 c 24
 222 360 200 400 200 400 c 1
 100 300 l 25
 100 100 l 25
 200 0 l 25
 300 100 l 1041
EndSplineSet
LCarets2: 1 300 
Ligature2: "Historic ligatures-1" g o
EndChar
StartChar: a_f
Encoding: 61347 61347 337
Width: 475
GlyphClass: 3
Flags: MW
LayerCount: 4
Fore
SplineSet
300 125 m 9
 175 0 l 1
 100 75 l 1
 100 175 l 1
 175 250 l 1
 175 250 193.964297096 225 250 225 c 3
 269.004218286 225 300 225 300 225 c 1033
300 -150 m 1
 300 550 l 1
 400 650 l 17
 400 650 431 600 475 600 c 24
 503 600 550 650 551 650 c 1033
425 400 m 1
 175 400 l 17
 100 325 l 1
 125 250 l 1033
EndSplineSet
LCarets2: 1 300 
Ligature2: "Historic ligatures-1" a f
EndChar
StartChar: a_g
Encoding: 61349 61349 338
Width: 600
GlyphClass: 3
Flags: MW
LayerCount: 4
Fore
SplineSet
125 250 m 17
 100 325 l 1
 175 400 l 1
 300 375 l 1
 300 125 l 9
 175 0 l 1
 100 75 l 1
 100 175 l 1
 175 250 l 1
 175 250 193.964297096 225 250 225 c 3
 269.004218286 225 300 225 300 225 c 1033
275 -150 m 9
 306 -150 393 -200 425 -200 c 24
 453 -200 500 -150 500 -150 c 9
 500 400 l 1
 500 400 478 360 450 360 c 24
 422 360 400 400 400 400 c 1
 300 300 l 25
 300 100 l 25
 400 0 l 25
 500 100 l 1041
EndSplineSet
LCarets2: 1 300 
Ligature2: "Historic ligatures-1" a g
EndChar
StartChar: a_n
Encoding: 61351 61351 340
Width: 600
GlyphClass: 3
Flags: MW
LayerCount: 4
Fore
SplineSet
125 250 m 17
 100 325 l 1
 175 400 l 1
 300 375 l 1
 300 125 l 9
 175 0 l 1
 100 75 l 1
 100 175 l 1
 175 250 l 1
 175 250 193.964297096 225 250 225 c 3
 269.004218286 225 300 225 300 225 c 1033
500 0 m 1
 500 325 l 25
 425 400 l 1
 300 275 l 1049
300 0 m 1
 300 375 l 1041
EndSplineSet
LCarets2: 1 300 
Ligature2: "Historic ligatures-1" a n
EndChar
StartChar: a_Rsmallcap
Encoding: 61355 61355 857
Width: 650
Flags: MW
LayerCount: 4
Fore
SplineSet
575 0 m 1
 575 0 531 82 500 125 c 24
 480 154 425 175 425 175 c 1025
400 150 m 1
 550 300 l 1
 400 400 l 1
 300 300 l 1049
125 250 m 17
 100 325 l 1
 175 400 l 1
 300 375 l 1
 300 0 l 1025
300 125 m 25
 175 0 l 1
 100 75 l 1
 100 175 l 1
 175 250 l 1
 175 250 193.964297096 225 250 225 c 3
 269.004218286 225 300 225 300 225 c 1033
EndSplineSet
LCarets2: 1 300 
Ligature2: "Historic ligatures-1" a Rsmallcap
EndChar
StartChar: m.alt
Encoding: 61987 61987 588
Width: 600
Flags: MW
AnchorPoint: "abvmark" 300 500 basechar 0
LayerCount: 4
Fore
SplineSet
300 0 m 1
 300 325 l 25
 225 400 l 1
 100 275 l 1049
135 330 m 25
 65 400 l 1049
100 365 m 9
 100 0 l 1025
430 -170 m 25
 500 -100 l 1
 500 325 l 9
 425 400 l 1
 300 275 l 1049
EndSplineSet
EndChar
StartChar: longs_k
Encoding: 62716 62716 708
Width: 650
Flags: MW
LayerCount: 4
Fore
SplineSet
515 425 m 25
 585 355 l 1049
350 200 m 1
 550 350 l 9
 550 390 l 1049
450 275 m 1
 550 200 l 1
 550 0 l 1025
125 -150 m 1
 125 550 l 1
 225 650 l 1
 225 650 266 600 350 600 c 9
 350 0 l 1025
EndSplineSet
LCarets2: 1 300 
Ligature2: "Ligatures-1" longs k
EndChar
StartChar: longs_s
Encoding: 62717 62717 710
Width: 600
Flags: MW
LayerCount: 4
Fore
SplineSet
125 -150 m 1
 125 550 l 1
 225 650 l 17
 225 650 256 600 300 600 c 24
 328 600 375 650 376 650 c 1033
525 350 m 25
 481 350 400 400 400 400 c 9
 300 300 l 1
 300 240 l 1
 500 160 l 1
 500 100 l 1
 400 0 l 17
 400 0 304 50 275 50 c 1049
EndSplineSet
LCarets2: 1 300 
Ligature2: "Ligatures-1" longs s
EndChar
StartChar: longs_longs_k
Encoding: 62718 62718 711
Width: 850
Flags: MW
LayerCount: 4
Fore
SplineSet
715 425 m 25
 785 355 l 1049
550 200 m 1
 750 350 l 9
 750 390 l 1049
650 275 m 1
 750 200 l 1
 750 0 l 1025
550 0 m 1
 550 600 l 1
 466 600 425 650 425 650 c 9
 325 550 l 1
 325 -150 l 1025
125 -150 m 1
 125 550 l 1
 225 650 l 1
 225 650 281 550 325 550 c 1025
EndSplineSet
LCarets2: 2 300 500 
Ligature2: "Ligatures-1" longs longs k
EndChar
StartChar: f_i
Encoding: 64257 64257 321
Width: 450
Flags: MW
LayerCount: 4
Fore
SplineSet
350 365 m 9
 350 0 l 1025
50 400 m 1
 315 400 l 25
 385 330 l 1025
125 -150 m 1
 125 550 l 1
 225 650 l 1
 225 650 270 610 410 610 c 9
 340 540 l 1025
EndSplineSet
LCarets2: 1 300 
Ligature2: "Ligatures-1" f i
EndChar
StartChar: f_f_i
Encoding: 64259 64259 324
Width: 650
Flags: MW
LayerCount: 4
Fore
SplineSet
325 -150 m 1
 325 550 l 1
 425 650 l 17
 425 650 470 610 610 610 c 1
 540 540 l 1025
125 -150 m 1
 125 550 l 1
 225 650 l 1
 225 650 281 550 325 550 c 1025
50 400 m 1
 515 400 l 25
 585 330 l 1025
550 365 m 9
 550 0 l 1025
EndSplineSet
LCarets2: 2 300 500 
Ligature2: "Ligatures-1" f f i
EndChar
StartChar: f_f_l
Encoding: 64260 64260 325
Width: 650
Flags: MW
LayerCount: 4
Fore
SplineSet
325 -150 m 1
 325 550 l 1
 425 650 l 17
 425 650 431 625 515 625 c 1
 585 555 l 1025
125 -150 m 1
 125 550 l 1
 225 650 l 1
 225 650 281 550 325 550 c 1025
50 400 m 25
 500 400 l 1049
550 590 m 9
 550 0 l 1049
EndSplineSet
LCarets2: 2 300 500 
Ligature2: "Ligatures-1" f f l
EndChar
StartChar: w.alt
Encoding: 65542 -1 784
Width: 600
Flags: MW
AnchorPoint: "abvmark" 300 500 basechar 0
AnchorPoint: "blwmark" 300 0 basechar 0
LayerCount: 4
Fore
SplineSet
335 330 m 25
 265 400 l 1049
300 365 m 25
 300 100 l 1
 400 0 l 25
 500 100 l 1
 500 330 l 29
 430 400 l 1053
135 330 m 25
 65 400 l 1049
100 365 m 25
 100 100 l 1
 200 0 l 25
 300 100 l 1025
EndSplineSet
EndChar
